<svg xmlns="http://www.w3.org/2000/svg" width="480" height="320" viewBox="0 0 480 320"><path fill="#7E57C2" d="M53.028 1.577h89.244v16.098H53.028zM370.563 209.827h98.75v-12.013l-104.06-.135V63.685h-13.49v146.14"/><path fill="#7E57C2" d="M447.213 74.618h-75.38V63.686h73.31zM459.095 146.594h-87.26v-16.096h84.298zM181.033 163.584h43.146v14.796h-43.147zM29.366 189.63h113.12v16.1H29.365zM275.384 193.63h69.793v14.79h-69.793zM224.18 69.925L157.79 196.638l-11.646-6.242 66.39-126.71zM10.687 183.926L34.35 24.29h16.098L26.786 183.925zM453.156 194.436l-9.463-45.136h16.095l9.466 45.136zM371.834 77.665h16.1v50.565h-16.1zM255.28 63.686h16.102V253.7h-16.1zM231.518 63.686h16.096v254.737h-16.096z"/></svg>