<svg xmlns="http://www.w3.org/2000/svg" width="600" height="300" viewBox="0 0 600 300"><path fill="none" d="M282.932 67.8L76.752 278.164l-57.79-56.642 206.18-210.36z"/><g enable-background="new"><path d="M90.885 261.268c-4.395 2.52-8.386 3.465-11.972 2.838-3.586-.628-6.906-2.437-9.96-5.43l-5.436-5.328c-1.768-1.733-3.523-2.692-5.266-2.878s-3.402.524-4.977 2.132l-5.383-5.276c1.575-1.607 2.257-3.275 2.044-5.006-.21-1.73-1.22-3.48-3.022-5.247l-5.438-5.33c-3.053-2.99-4.924-6.27-5.614-9.833-.69-3.564.18-7.57 2.61-12.013l5.675 2.62c-.934 2.062-.998 4.1-.19 6.115.806 2.016 2.265 4.057 4.37 6.12l5.44 5.33c1.856 1.82 3.114 3.833 3.77 6.035.66 2.203.603 4.502-.168 6.896 2.414-.784 4.73-.87 6.945-.255s4.235 1.813 6.056 3.6l5.437 5.327c2.107 2.065 4.176 3.48 6.208 4.247 2.032.767 4.068.662 6.11-.313l2.762 5.648zM87.15 245.79l-38.996-38.22 13.335-13.605c4.67-4.767 10.043-7.202 16.116-7.308 6.07-.105 11.49 2.178 16.258 6.85l6.455 6.327c4.785 4.69 7.176 10.063 7.175 16.118-.002 6.055-2.338 11.466-7.01 16.233L87.15 245.79zm-25.304-40.133l26.97 26.434 5.67-5.784c2.52-2.57 3.59-5.583 3.21-9.035-.378-3.452-2.068-6.648-5.068-9.59l-6.508-6.377c-2.982-2.923-6.198-4.534-9.648-4.836-3.45-.302-6.436.834-8.956 3.405l-5.67 5.785zM135.014 198.08c-4.235 4.32-8.868 6.396-13.9 6.226-5.03-.17-9.635-2.303-13.813-6.398l-1.07-1.05c-4.34-4.252-6.737-8.913-7.195-13.983-.458-5.068 1.344-9.656 5.404-13.764 3.814-3.892 7.933-5.71 12.355-5.454 4.422.257 8.65 2.362 12.686 6.316l4.045 3.965-16.932 17.274.082.238c2.104 1.818 4.302 2.79 6.593 2.918 2.29.127 4.476-.872 6.56-2.997 1.714-1.75 2.993-3.41 3.834-4.984.842-1.573 1.536-3.37 2.08-5.392l6.896 2.61c-.19 2.087-.937 4.437-2.236 7.05-1.298 2.612-3.095 5.087-5.388 7.426zm-24.55-23.063c-1.54 1.57-2.185 3.31-1.936 5.217.25 1.907 1.18 3.825 2.79 5.754l.187.077 9.345-9.534-.59-.577c-1.695-1.662-3.372-2.622-5.026-2.88-1.657-.258-3.246.39-4.77 1.944zM157.576 157.863c-.857-.84-2-1.146-3.43-.92-1.43.226-3.48 1.236-6.148 3.03-4.004 2.73-7.554 4.3-10.653 4.71-3.098.41-5.826-.54-8.183-2.85-2.48-2.432-3.565-5.56-3.25-9.38.315-3.822 2.188-7.484 5.618-10.983 3.587-3.66 7.336-5.735 11.248-6.226 3.91-.49 7.126.587 9.646 3.232l.107.21-7.4 7.553c-1.162-1.14-2.475-1.69-3.942-1.658-1.467.032-2.893.754-4.275 2.164-1.225 1.25-1.884 2.547-1.976 3.89-.092 1.347.316 2.465 1.228 3.357.893.875 1.992 1.21 3.297 1 1.307-.206 3.32-1.252 6.042-3.136 4.197-2.853 7.84-4.472 10.93-4.857 3.09-.384 5.85.614 8.277 2.993 2.608 2.555 3.647 5.762 3.12 9.622s-2.583 7.62-6.17 11.28c-3.78 3.855-7.746 5.947-11.897 6.27-4.152.325-7.424-.79-9.82-3.35l-.107-.21 7.01-7.15c1.604 1.47 3.228 2.063 4.87 1.78 1.64-.28 3.223-1.2 4.746-2.752 1.417-1.446 2.208-2.833 2.372-4.16.16-1.326-.258-2.48-1.258-3.46zM150.118 109.7l-7.665 7.82-5.865-5.748 7.665-7.82 5.865 5.748zm35.916 35.2l-7.665 7.82-28.98-28.4 7.665-7.822 28.98 28.403zM176.956 125.66c-4.57-4.48-7.287-9.084-8.147-13.814-.86-4.73.467-8.888 3.984-12.477 1.592-1.626 3.358-2.695 5.298-3.21 1.94-.513 4.018-.543 6.23-.088l-3.09-4.24 6.587-6.722 28.844 28.27c3.767 3.693 5.475 7.782 5.122 12.268-.353 4.485-2.69 8.934-7.012 13.343-1.435 1.465-3.16 2.82-5.17 4.07-2.012 1.25-4.048 2.23-6.11 2.94l-4.552-7.036c1.743-.636 3.39-1.448 4.935-2.436 1.545-.988 3.044-2.223 4.497-3.705 2.1-2.143 3.198-4.156 3.294-6.04.096-1.883-.803-3.752-2.695-5.607l-2.625-2.573c.25 1.924.09 3.748-.475 5.468-.566 1.722-1.584 3.33-3.055 4.83-3.482 3.554-7.498 5.044-12.047 4.47-4.55-.572-8.966-2.958-13.25-7.158l-.564-.552zm8.228-7.27c2.535 2.486 4.946 4.018 7.233 4.596 2.286.578 4.374-.098 6.264-2.026 1.173-1.196 1.95-2.424 2.324-3.683.376-1.26.39-2.55.04-3.872l-12.56-12.312c-1.383-.375-2.722-.383-4.02-.026-1.294.357-2.51 1.118-3.648 2.278-1.873 1.91-2.39 4.134-1.55 6.67.837 2.54 2.623 5.146 5.354 7.823l.564.553zM200.708 71.96l4.493 3.72c-.536-2.417-.524-4.732.037-6.948.56-2.215 1.7-4.2 3.414-5.95 2.87-2.927 6.053-4.29 9.546-4.086 3.494.204 7.276 2.3 11.347 6.29L247.3 82.392l-7.69 7.848-17.73-17.377c-2.07-2.03-3.895-3.106-5.47-3.232-1.574-.125-3.07.535-4.488 1.98-1.138 1.162-1.92 2.397-2.35 3.71-.428 1.312-.54 2.63-.33 3.955l20.97 20.554-7.665 7.82-28.98-28.403 7.14-7.285zM256.386 83.944c.934-2.06.998-4.098.19-6.114-.807-2.017-2.263-4.057-4.37-6.122l-5.437-5.33c-1.857-1.818-3.098-3.84-3.722-6.06s-.514-4.566.327-7.03c-2.448.89-4.794 1.04-7.036.454-2.243-.587-4.302-1.8-6.176-3.637l-5.438-5.33c-2.106-2.063-4.177-3.48-6.208-4.246-2.032-.767-4.068-.662-6.11.312l-2.734-5.62c4.377-2.502 8.36-3.448 11.945-2.84 3.584.61 6.905 2.41 9.957 5.403l5.438 5.33c1.803 1.767 3.567 2.743 5.293 2.93 1.726.186 3.393-.543 5.003-2.186l5.384 5.275c-1.61 1.643-2.3 3.33-2.07 5.06.23 1.73 1.228 3.46 2.996 5.193l5.437 5.33c3.053 2.992 4.925 6.28 5.615 9.86.69 3.583-.172 7.587-2.584 12.014l-5.702-2.648z"/></g><path fill="none" d="M244.9 160.045h115.87v78.05H244.9z"/><g enable-background="new"><path d="M247.257 202.268c0-5.672 1.582-10.318 4.746-13.94s7.546-5.43 13.148-5.43c5.626 0 10.032 1.804 13.22 5.413 3.187 3.61 4.78 8.263 4.78 13.958v.738c0 5.72-1.587 10.377-4.763 13.975-3.176 3.6-7.564 5.397-13.166 5.397-5.624 0-10.024-1.8-13.2-5.396-3.176-3.597-4.764-8.255-4.764-13.974v-.738zm10.23.738c0 3.47.61 6.252 1.83 8.35 1.217 2.098 3.186 3.146 5.905 3.146 2.648 0 4.588-1.055 5.818-3.164s1.846-4.887 1.846-8.332v-.738c0-3.375-.62-6.13-1.863-8.262-1.243-2.133-3.2-3.2-5.87-3.2-2.65 0-4.59 1.073-5.82 3.218s-1.845 4.893-1.845 8.244v.738zM312.79 216.014c-1.174 2.04-2.66 3.61-4.466 4.71-1.806 1.103-3.902 1.653-6.293 1.653-4.007 0-7.142-1.36-9.404-4.078-2.262-2.72-3.393-6.94-3.393-12.657V183.6h10.23v22.113c0 3.328.45 5.607 1.354 6.838.9 1.23 2.303 1.847 4.2 1.847 1.64 0 3.047-.264 4.22-.79 1.172-.528 2.132-1.308 2.883-2.34V183.6h10.266v38.04h-8.508l-1.09-5.626zM350.125 192.424l-3.762-.105c-1.524 0-2.777.315-3.762.948s-1.734 1.523-2.25 2.672v25.7h-10.23V183.6h9.528l.457 5.625c.89-1.992 2.044-3.545 3.463-4.658 1.418-1.113 3.053-1.67 4.904-1.67.515 0 .99.04 1.424.123.434.082.873.182 1.318.3l-1.09 9.104z"/></g><path fill="none" d="M535.426 276.724L334.538 72.022l60.575-59.447L596 217.278z"/><g enable-background="new"><path d="M368.98 58.34l-.18.178 10.938 23.372-8.19 8.037-14.42-36.798 6.835-6.708 36.49 15.14-8.19 8.036-23.282-11.257zM423.963 118.462l-.122.238c-4.598 4.67-9.66 6.84-15.185 6.51-5.526-.332-10.82-3.075-15.882-8.234-5.162-5.26-7.638-11.164-7.426-17.715.21-6.55 2.995-12.456 8.355-17.715l8.7-8.54c5.34-5.24 11.257-7.954 17.753-8.14 6.494-.19 12.254 2.277 17.277 7.395 5.24 5.34 8.032 10.795 8.378 16.367.345 5.572-1.89 10.642-6.706 15.21l-.24.118-8.392-8.55c2.81-2.76 4.238-5.49 4.283-8.195.046-2.703-1.32-5.47-4.098-8.3-2.582-2.63-5.654-3.644-9.22-3.04-3.565.602-7.024 2.548-10.377 5.838l-8.762 8.6c-3.372 3.308-5.36 6.785-5.96 10.43-.6 3.643.458 6.85 3.177 9.62 2.58 2.63 5.192 3.917 7.84 3.862 2.645-.055 5.393-1.48 8.243-4.278l8.365 8.52zM430.295 120.76c4.857-4.768 10.167-7.318 15.928-7.652s10.994 1.898 15.702 6.696c4.73 4.817 6.886 10.108 6.475 15.872-.413 5.763-3.058 11.04-7.936 15.825l-.632.622c-4.898 4.807-10.222 7.36-15.973 7.665-5.752.305-10.98-1.942-15.69-6.74-4.727-4.817-6.885-10.098-6.473-15.842.41-5.744 3.066-11.02 7.964-15.826l.635-.62zm7.967 9.382c-2.97 2.916-4.843 5.777-5.615 8.583-.772 2.807-.016 5.375 2.27 7.704 2.227 2.267 4.76 3.04 7.6 2.322s5.737-2.526 8.688-5.422l.633-.62c2.89-2.837 4.727-5.684 5.51-8.542.782-2.855.05-5.428-2.195-7.716-2.226-2.27-4.773-3.028-7.645-2.28-2.87.75-5.74 2.532-8.612 5.35l-.634.62zM463.88 156.127c5.14-5.042 10.373-8.002 15.7-8.876s9.973.706 13.933 4.74c1.596 1.627 2.683 3.438 3.26 5.43.578 1.996.696 4.125.358 6.39l17.855-17.523 8.657 8.823-46.97 46.095-7.358-7.497 3.266-4.683c-2.51.454-4.85.367-7.022-.26-2.172-.628-4.144-1.844-5.917-3.65-3.92-3.995-5.503-8.54-4.748-13.633.753-5.095 3.54-10.005 8.356-14.732l.633-.623zm7.967 9.383c-2.85 2.797-4.62 5.48-5.31 8.05-.69 2.568.026 4.937 2.154 7.104 1.242 1.265 2.58 2.117 4.02 2.56 1.438.44 2.943.48 4.52.115l13.88-13.622c.432-1.606.477-3.158.132-4.652-.343-1.495-1.126-2.865-2.347-4.11-2.108-2.146-4.604-2.78-7.486-1.904-2.883.88-5.858 2.824-8.93 5.838l-.633.62zM496.576 222.75c-4.768-4.858-7-10.115-6.698-15.77.3-5.655 2.8-10.788 7.498-15.397l1.204-1.182c4.878-4.786 10.172-7.38 15.884-7.785 5.712-.403 10.833 1.724 15.363 6.38 4.294 4.375 6.25 9.048 5.864 14.016-.384 4.97-2.845 9.68-7.38 14.13l-4.548 4.463-19.06-19.42-.27.087c-2.09 2.327-3.23 4.777-3.424 7.35s.882 5.056 3.226 7.444c1.932 1.968 3.77 3.442 5.523 4.423 1.75.98 3.756 1.8 6.018 2.458l-3.086 7.697c-2.346-.26-4.972-1.15-7.882-2.67-2.907-1.518-5.652-3.592-8.232-6.222zm26.477-27.106c-1.733-1.768-3.676-2.53-5.826-2.293-2.15.24-4.327 1.243-6.53 3.012l-.092.21 10.52 10.718.66-.65c1.908-1.87 3.024-3.734 3.35-5.592.325-1.858-.368-3.66-2.082-5.404zM548.747 242.184l.18-.177-11.11-23.73 8.1-7.95 14.745 37.07-6.835 6.708-36.816-15.41 8.13-7.98 23.607 11.47z"/></g></svg>