<svg xmlns="http://www.w3.org/2000/svg" width="512" height="512" viewBox="0 0 512 512"><path fill="none" d="M9.448 10.31H502.55v491.38H9.45z"/><path d="M57.73 153.982c30.31 21.563 56.56 41.72 78.75 60.47L91.01 263.2c-24.69-22.81-49.687-44.53-75-65.156l41.72-44.062zm18.28 126.562c28.126 12.188 49.69 20.47 64.69 24.844-15.316 52.5-33.75 112.03-55.314 178.594-24.064-8.752-45.784-16.095-65.156-22.03 20.624-56.563 39.217-117.032 55.78-181.408zM62.887 29.294c24.998 17.19 51.248 37.346 78.75 60.47L98.51 137.575C73.2 113.826 48.04 91.638 23.043 71.013l39.844-41.72zM211.01 480.7h-60V44.294h312.657v374.53c0 17.5-3.714 31.29-11.133 41.368-7.424 10.078-17.308 16.25-29.648 18.516-12.346 2.264-38.906 3.398-79.688 3.398-3.75-20.94-8.596-41.72-14.53-62.344 18.75.626 35.466.938 50.155.938 16.56 0 24.844-8.906 24.844-26.72V103.358H211.01V480.7zm171.563-292.03h-150v-54.376h150v54.375zm-3.75 28.124v167.812H286.48v24.844h-50.157V216.794h142.5zM286.48 271.17v59.062h42.187V271.17H286.48z"/></svg>