<svg xmlns="http://www.w3.org/2000/svg" width="600" height="300" viewBox="0 0 600 300"><path fill="none" d="M44.123 51.16H484.43v129.6H44.124z"/><g enable-background="new"><path d="M96.448 128.676c0-3.28-1.143-5.918-3.428-7.91s-6.3-3.867-12.04-5.625c-9.845-2.967-17.315-6.464-22.413-10.487-5.098-4.022-7.646-9.512-7.646-16.465 0-6.992 2.872-12.705 8.614-17.14 5.742-4.432 13.066-6.65 21.973-6.65 9.453 0 17.06 2.384 22.822 7.15 5.76 4.766 8.543 11.015 8.35 18.75l-.118.35H95.98c0-4.256-1.29-7.528-3.867-9.813s-6.192-3.428-10.84-3.428c-4.22 0-7.48 1.017-9.785 3.047-2.305 2.03-3.457 4.63-3.457 7.793 0 2.892 1.25 5.265 3.75 7.12 2.5 1.854 6.817 3.817 12.95 5.888 9.375 2.657 16.523 6.123 21.445 10.4s7.383 9.912 7.383 16.904c0 7.304-2.852 13.065-8.555 17.284-5.704 4.22-13.242 6.328-22.617 6.328-9.18 0-17.06-2.285-23.643-6.855-6.583-4.57-9.776-11.387-9.58-20.45l.117-.35h16.582c0 5.038 1.484 8.75 4.453 11.132 2.968 2.382 6.992 3.573 12.07 3.573 4.57 0 8.057-.957 10.46-2.87 2.402-1.915 3.603-4.474 3.603-7.677zM142.855 72.367h-17.11V59.535h17.11v12.832zm0 78.574h-17.11V87.544h17.11v63.398zM172.796 87.543l.703 8.38c2.03-3.048 4.58-5.4 7.645-7.062 3.066-1.66 6.61-2.49 10.635-2.49 4.062 0 7.54.9 10.43 2.696 2.89 1.797 5.078 4.512 6.563 8.145 1.953-3.397 4.492-6.054 7.617-7.968 3.125-1.913 6.797-2.87 11.016-2.87 6.25 0 11.18 2.217 14.795 6.65 3.614 4.433 5.42 11.2 5.42 20.302v37.617h-17.108v-37.675c0-5.077-.782-8.613-2.344-10.605-1.563-1.992-3.887-2.988-6.973-2.988-2.422 0-4.522.537-6.3 1.61-1.777 1.076-3.192 2.57-4.247 4.483 0 .742.02 1.377.06 1.904.038.526.058 1.063.058 1.61v41.66h-17.05v-37.676c0-4.96-.783-8.467-2.345-10.518-1.562-2.05-3.906-3.076-7.03-3.076-2.305 0-4.327.44-6.064 1.318-1.74.88-3.174 2.12-4.307 3.72v46.23h-17.052V87.544h15.878zM317.933 121c0 9.375-2.168 16.914-6.504 22.617-4.337 5.704-10.393 8.555-18.165 8.555-3.32 0-6.27-.615-8.848-1.846s-4.786-3.037-6.62-5.42v30.41h-17.052V87.543h15.41l.996 7.5c1.876-2.773 4.132-4.912 6.77-6.416 2.636-1.503 5.712-2.256 9.228-2.256 7.852 0 13.945 3.068 18.28 9.2 4.337 6.133 6.505 14.2 6.505 24.2V121zm-17.11-1.23c0-5.977-.996-10.82-2.988-14.53-1.992-3.712-5.04-5.567-9.14-5.567-2.58 0-4.776.527-6.593 1.582s-3.252 2.56-4.307 4.512v27.773c1.055 1.797 2.49 3.164 4.307 4.102s4.052 1.406 6.71 1.406c4.14 0 7.177-1.62 9.11-4.863 1.934-3.242 2.9-7.637 2.9-13.184v-1.23zM346.468 150.94h-17.11V59.536h17.11v91.406zM378.52 72.367h-17.11V59.535h17.11v12.832zm0 78.574h-17.11V87.544h17.11v63.398zM397.034 150.94V99.556H387.6V87.543h9.434v-7.03c0-7.11 2.05-12.59 6.152-16.437 4.102-3.847 9.863-5.77 17.285-5.77 1.445 0 2.92.107 4.425.32 1.503.216 3.154.52 4.95.91l-1.464 12.714c-.937-.155-1.845-.293-2.724-.41s-1.904-.176-3.076-.176c-2.774 0-4.873.762-6.3 2.285-1.426 1.522-2.138 3.71-2.138 6.562v7.03h12.188v12.013h-12.188v51.387h-17.108zM457.27 124.34l.702 3.516h.352l12.13-40.313h18.397l-25.722 72.89c-1.797 4.532-4.24 8.35-7.324 11.456-3.086 3.104-7.715 4.657-13.887 4.657-1.445 0-2.783-.117-4.014-.352s-2.725-.566-4.482-.996l1.993-12.48c.507.077 1.055.154 1.64.233.587.078 1.114.117 1.583.117 2.813 0 4.98-.694 6.504-2.08 1.523-1.387 2.695-3.115 3.516-5.186l1.992-4.922-22.5-63.34h18.398l10.723 36.798z"/></g><path fill="none" d="M49.938 192.39H484.43v68.954H49.938z"/><g enable-background="new"><path d="M51.968 225.6c0-4.883 1.362-8.885 4.087-12.002 2.725-3.12 6.5-4.678 11.322-4.678 4.844 0 8.638 1.555 11.383 4.662 2.745 3.108 4.117 7.114 4.117 12.02v.635c0 4.925-1.368 8.936-4.102 12.033-2.735 3.1-6.514 4.647-11.337 4.647-4.844 0-8.633-1.55-11.368-4.647-2.735-3.098-4.102-7.108-4.102-12.033v-.636zm8.81.636c0 2.987.523 5.384 1.573 7.19 1.05 1.806 2.746 2.71 5.087 2.71 2.28 0 3.95-.91 5.01-2.726s1.59-4.208 1.59-7.175v-.636c0-2.907-.536-5.278-1.605-7.115-1.07-1.836-2.755-2.755-5.056-2.755-2.28 0-3.95.923-5.01 2.77-1.06 1.847-1.59 4.214-1.59 7.1v.636zM108.397 237.438c-1.01 1.756-2.29 3.108-3.845 4.057-1.554.948-3.36 1.423-5.42 1.423-3.45 0-6.15-1.17-8.097-3.512-1.948-2.34-2.92-5.974-2.92-10.898v-18.98h8.81v19.04c0 2.867.387 4.83 1.165 5.89.777 1.06 1.983 1.59 3.618 1.59 1.413 0 2.624-.228 3.633-.683 1.01-.453 1.837-1.124 2.483-2.013v-23.825h8.84v32.756h-7.326l-.94-4.845zM140.548 217.124l-3.24-.09c-1.31 0-2.39.27-3.238.816s-1.494 1.313-1.938 2.3v22.13h-8.81v-32.755h8.204l.394 4.844c.767-1.716 1.76-3.054 2.982-4.013 1.22-.958 2.628-1.438 4.223-1.438.444 0 .853.034 1.226.104.374.07.752.157 1.136.258l-.938 7.842zM174.272 236.136c1.534 0 2.755-.46 3.663-1.378.908-.918 1.362-2.144 1.362-3.678h8.053l.06.182c.082 3.31-1.15 6.08-3.692 8.31-2.543 2.23-5.69 3.346-9.445 3.346-4.844 0-8.588-1.55-11.23-4.647-2.645-3.097-3.967-7.057-3.967-11.88v-.91c0-4.802 1.317-8.764 3.95-11.88 2.635-3.12 6.363-4.68 11.187-4.68 3.996 0 7.215 1.15 9.657 3.452 2.442 2.3 3.623 5.328 3.542 9.082l-.06.182h-8.054c0-1.695-.45-3.104-1.347-4.223-.897-1.12-2.144-1.68-3.738-1.68-2.28 0-3.9.912-4.86 2.738-.958 1.828-1.437 4.164-1.437 7.01v.908c0 2.906.48 5.258 1.438 7.054.96 1.796 2.598 2.694 4.92 2.694zM211.872 242.28c-.323-.745-.6-1.532-.833-2.36-.233-.827-.4-1.675-.5-2.543-.91 1.595-2.11 2.917-3.604 3.966-1.494 1.05-3.27 1.574-5.328 1.574-3.43 0-6.075-.883-7.932-2.65-1.857-1.765-2.785-4.17-2.785-7.22 0-3.208 1.237-5.695 3.71-7.46 2.47-1.768 6.08-2.65 10.822-2.65h4.965v-2.604c0-1.574-.414-2.795-1.24-3.663-.83-.867-2.06-1.302-3.694-1.302-1.433 0-2.538.35-3.315 1.044-.777.697-1.166 1.65-1.166 2.86h-8.507l-.06-.18c-.143-2.766 1.063-5.152 3.617-7.16 2.553-2.01 5.888-3.013 10.005-3.013 3.936 0 7.12.988 9.55 2.966 2.433 1.98 3.65 4.813 3.65 8.507v13.532c0 1.534.115 2.978.347 4.33.232 1.352.6 2.693 1.105 4.025h-8.808zm-8.083-5.902c1.533 0 2.905-.383 4.116-1.15 1.21-.767 2.038-1.654 2.482-2.664v-4.632h-4.965c-1.877 0-3.295.465-4.253 1.393-.96.93-1.438 2.07-1.438 3.42 0 1.11.358 1.994 1.075 2.65.716.655 1.71.983 2.982.983zM234.063 209.525l.363 4.33c1.05-1.575 2.366-2.79 3.95-3.648 1.585-.858 3.417-1.287 5.496-1.287 2.1 0 3.895.465 5.39 1.393 1.492.93 2.623 2.33 3.39 4.208 1.01-1.755 2.32-3.127 3.936-4.116 1.614-.988 3.512-1.483 5.69-1.483 3.23 0 5.778 1.147 7.645 3.437s2.8 5.788 2.8 10.49v19.436h-8.84v-19.466c0-2.623-.404-4.45-1.21-5.48-.81-1.028-2.01-1.543-3.604-1.543-1.252 0-2.337.277-3.255.833-.918.555-1.65 1.327-2.195 2.315 0 .384.01.712.03.983.02.273.03.55.03.833v21.524h-8.81v-19.466c0-2.563-.404-4.374-1.21-5.435-.81-1.058-2.02-1.588-3.634-1.588-1.19 0-2.235.228-3.133.68-.898.456-1.64 1.097-2.225 1.924v23.886h-8.81v-32.756h8.205zM309.05 226.812c0 4.844-1.12 8.74-3.36 11.686-2.24 2.947-5.37 4.42-9.385 4.42-1.716 0-3.24-.317-4.57-.954-1.333-.635-2.474-1.568-3.422-2.8v15.712h-8.81v-45.35h7.962l.515 3.875c.97-1.432 2.135-2.537 3.496-3.313 1.363-.777 2.952-1.166 4.77-1.166 4.056 0 7.204 1.586 9.444 4.754 2.24 3.17 3.36 7.337 3.36 12.503v.635zm-8.84-.636c0-3.088-.515-5.59-1.544-7.508-1.03-1.917-2.604-2.876-4.723-2.876-1.332 0-2.468.272-3.405.817-.94.544-1.68 1.32-2.226 2.33v14.35c.545.93 1.287 1.635 2.226 2.12.938.483 2.093.726 3.466.726 2.14 0 3.708-.837 4.708-2.513.998-1.675 1.498-3.945 1.498-6.812v-.634zM334.57 237.438c-1.01 1.756-2.29 3.108-3.845 4.057-1.555.948-3.36 1.423-5.42 1.423-3.45 0-6.15-1.17-8.098-3.512-1.947-2.34-2.92-5.974-2.92-10.898v-18.98h8.81v19.04c0 2.867.388 4.83 1.165 5.89.776 1.06 1.982 1.59 3.617 1.59 1.41 0 2.622-.228 3.632-.683 1.01-.453 1.836-1.124 2.482-2.013v-23.825h8.84v32.756h-7.326l-.938-4.845zM367.205 233.2c0-.97-.47-1.802-1.407-2.5-.94-.694-2.68-1.305-5.223-1.83-3.835-.767-6.746-1.927-8.734-3.48-1.986-1.555-2.98-3.664-2.98-6.328 0-2.805 1.19-5.196 3.572-7.175 2.38-1.978 5.55-2.967 9.506-2.967 4.137 0 7.452.99 9.944 2.967 2.493 1.98 3.688 4.44 3.588 7.387l-.06.182h-8.538c0-1.312-.424-2.38-1.27-3.21-.85-.826-2.07-1.24-3.664-1.24-1.413 0-2.533.354-3.36 1.06-.828.707-1.24 1.574-1.24 2.604 0 1.01.428 1.832 1.285 2.467.858.637 2.6 1.207 5.223 1.71 4.016.81 7.008 1.994 8.977 3.558 1.967 1.564 2.95 3.72 2.95 6.464 0 2.946-1.26 5.357-3.783 7.234-2.523 1.877-5.854 2.815-9.99 2.815-4.36 0-7.806-1.105-10.34-3.316-2.53-2.21-3.737-4.727-3.616-7.553l.06-.18h8.084c.06 1.755.636 3.026 1.726 3.813s2.513 1.18 4.27 1.18c1.634 0 2.88-.327 3.738-.982.854-.657 1.283-1.55 1.283-2.68zM406.197 242.28h-8.84v-47.226h8.84v47.227zM422.757 201.685h-8.84v-6.63h8.84v6.63zm0 40.596h-8.84v-32.755h8.84v32.756zM432.323 242.28v-26.55h-4.874v-6.205h4.873v-3.633c0-3.673 1.06-6.504 3.18-8.492 2.118-1.987 5.095-2.98 8.93-2.98.746 0 1.51.055 2.285.166.777.11 1.63.268 2.56.47l-.758 6.568c-.484-.08-.954-.15-1.407-.212-.455-.06-.984-.09-1.59-.09-1.434 0-2.518.393-3.254 1.18-.738.787-1.106 1.918-1.106 3.39v3.634h6.297v6.206h-6.296v26.55h-8.84zM465.11 242.917c-4.886 0-8.7-1.5-11.444-4.495-2.745-2.998-4.117-6.857-4.117-11.58v-1.21c0-4.905 1.33-8.92 3.995-12.05 2.664-3.128 6.327-4.682 10.99-4.662 4.398 0 7.774 1.348 10.126 4.04 2.352 2.696 3.527 6.324 3.527 10.885v4.57H458.66l-.09.183c.14 2.24.822 4.057 2.044 5.45 1.22 1.392 3.03 2.088 5.434 2.088 1.978 0 3.658-.2 5.04-.605 1.383-.402 2.81-1.018 4.284-1.846l2.392 5.45c-1.313 1.07-3.088 1.967-5.328 2.693s-4.683 1.09-7.327 1.09zm-.576-27.186c-1.776 0-3.144.61-4.102 1.832-.96 1.222-1.54 2.842-1.74 4.86l.06.15h10.777v-.666c0-1.917-.395-3.426-1.182-4.526-.786-1.1-2.058-1.65-3.814-1.65z"/></g><path fill="none" d="M484.43 38.656h71.447V248.84H484.43z"/><path d="M540.956 176.04h-33.26V67.37h33.26V176.04zm0 57.18h-33.26v-29.16h33.26v29.16z" enable-background="new"/></svg>